<svg width="418" height="274" viewBox="0 0 418 274" fill="none" xmlns="http://www.w3.org/2000/svg">
<path d="M250.365 126.157L231.413 126.305C231.413 126.305 231.242 119.441 226.419 115.685C222.822 112.882 214.983 112.905 211.614 112.897C203.725 112.873 197.926 119.343 200.142 125.995C202.357 132.644 225.426 137.886 225.426 137.886C225.426 137.886 243.66 142.374 248.806 152.702C253.948 163.029 250.471 174.138 246.004 179.197C243.215 182.356 235.435 189.745 222.509 190.636C207.684 191.654 197.949 188.492 189.513 181.779C179.297 173.65 179.399 161.225 179.399 161.225L198.892 161.19C198.892 161.19 199.456 167.488 204.671 171.451C208.146 174.091 215.764 174.976 219.041 174.909C227.391 174.735 235.675 167.787 231.769 160.271C228.123 153.256 220.29 154.039 210.968 150.538C201.645 147.036 195.269 146.003 190.483 142.099C181.724 134.953 179.924 127.776 181.068 117.538C182.281 106.668 206.277 87.8172 234.363 100.715C250.055 107.918 250.365 126.157 250.365 126.157Z" fill="white"/>
<path d="M274.266 75.5053L274.045 98.0957L263.463 98.1392L263.456 113.842L274.048 113.86C274.048 113.86 274.068 119.03 274.183 138.385C274.285 155.832 272.667 170.883 276.9 178.237C282.118 187.311 291.111 189.325 299.231 189.206C312.473 189.008 314.837 189.435 314.837 189.435L314.8 173.244C314.8 173.244 309.879 173.244 305.359 173.235C302.125 173.23 299.135 173.389 298.149 172.751C296.801 171.881 294.418 171.402 294.009 169.148C293.043 163.848 293.537 154.802 293.63 145.867C293.795 130.236 293.702 113.848 293.702 113.848L314.932 113.811L314.774 98.0434L293.663 98.0812L293.132 75.5459L274.266 75.5053Z" fill="white"/>
<path d="M371.62 96.8309C356.683 96.7207 344.146 99.8509 333.465 115.151C322.781 130.454 324.864 151.901 329.941 165.185C336.188 181.541 350.555 189.742 366.101 190.732C387.991 192.127 399.064 176.073 399.067 176.073L399.087 189.229L418 189.264L417.937 98.1074L399.199 98.1625L399.169 111.264C399.169 111.264 388.182 96.9498 371.62 96.8309ZM372.365 112.984C383.478 113.445 394.218 121.435 398.467 133.802C403.326 147.933 392.82 170.651 379.749 172.864C372.751 174.051 363.375 174.135 356.284 168.663C353.205 166.285 347.08 159.302 345.27 143.111C343.648 128.606 355.183 115.218 367.595 113.257C369.177 113.007 370.776 112.92 372.365 112.984Z" fill="white"/>
<path d="M124.12 96.8018C105.879 97.1325 97.429 101.055 89.6504 109.694C78.1809 122.432 75.5789 140.265 78.7202 155.522C83.4426 178.457 97.5173 183.589 99.2827 184.703C107.628 189.969 123.27 193.792 139.377 188.132C145.489 185.983 152.1 180.929 155.922 176.456C162.174 169.136 163.71 162.058 163.71 162.058L143.395 162.032C143.395 162.032 139.099 171.164 130.755 173.679C122.41 176.197 113.668 175.086 105.804 168.974C97.3077 162.371 96.9853 151.016 96.9853 151.016L165.748 151.106C165.748 151.106 168.353 136.195 162.515 122.015C157.769 110.483 146.037 96.4072 124.12 96.8018ZM121.473 113.085C146.469 113.021 146.578 135.24 146.578 135.24L97.2843 135.56C97.2843 135.56 98.3702 113.143 121.473 113.085Z" fill="white"/>
<path d="M67.2181 74.461L0 74.3073L0.0323039 189.406L18.9095 189.409L18.9765 139.436L56.1663 139.444L56.1943 123.718L18.9204 123.657L18.8805 90.0367L67.1884 90.0048L67.2181 74.461Z" fill="white"/>
<path d="M131.796 0.316203L131.878 57.8061L174.702 57.6204L175.072 35.8452L286.074 35.7437L285.896 0L131.796 0.316203Z" fill="white"/>
<path d="M131.893 207.726H175.038L175.009 265.192L131.876 265.062L131.893 207.726Z" fill="white"/>
<path d="M208.677 204.349C206.273 204.332 203.735 204.857 201.767 205.602C198.678 206.765 196.727 208.521 196.727 208.521L197.468 209.455C197.468 209.455 198.213 208.735 199.107 208.503C200.003 208.268 201.147 208.738 201.147 208.738C201.147 208.738 202.449 209.533 202.529 209.852C202.637 210.299 202.578 212.843 202.578 212.843C202.578 212.843 202.482 237.801 202.578 247.856C202.677 257.914 206.639 261.537 206.639 261.537C206.639 261.537 207.836 263.263 210.717 264.946C213.599 266.625 218.164 267.792 218.164 267.792L226.396 267.719C226.396 267.719 232.739 266.483 235.936 263.739C239.351 260.809 241.521 256.588 241.521 256.585C241.521 256.585 244.23 250.333 243.334 243.504C242.915 240.316 242.368 237.171 241.201 234.549C239.869 231.549 236.691 228.515 235.679 227.676C234.446 226.655 231.103 225.022 226.366 225.173C221.629 225.326 216.506 228.88 216.506 228.88C216.506 228.88 216.269 220.046 216.437 215.01C216.503 212.939 216.493 210.781 216.209 209.272C215.949 207.9 215.725 207.299 214.789 206.362C213.355 204.935 211.083 204.366 208.677 204.349ZM221.256 230.215C222.826 230.151 225.17 230.568 226.211 232.126C229.412 236.919 229.455 246.414 229.458 246.414C229.458 246.414 229.564 253.788 228.334 258.047C227.105 262.306 225.255 263.568 225.252 263.568C225.252 263.568 221.171 264.479 219.279 262.407C217.386 260.333 216.869 254.02 216.869 254.02C216.869 254.02 216.2 245.636 216.496 239.025C216.575 237.258 216.269 235.683 216.612 234.349C217.189 232.074 219.071 230.774 220.02 230.415C220.291 230.31 220.732 230.235 221.256 230.215Z" fill="white"/>
<path d="M263.588 225.155C262.569 225.129 261.53 225.161 260.588 225.291C256.816 225.811 253.358 227.015 253.358 227.015C253.358 227.015 247.767 229.782 247.454 232.889C247.138 235.996 247.925 237.891 248.39 238.282C249.172 238.938 250.968 240.354 253.18 240.386C255.395 240.42 257.126 238.384 257.126 238.384C257.126 238.381 257.822 236.69 257.538 235.535C257.347 234.755 256.371 233.803 256.045 233.615C255.366 233.217 253.846 232.631 253.5 232.518C253.345 232.466 253.296 231.186 253.698 230.795C255.376 229.156 258.936 228.439 260.65 228.573C262.75 228.738 267.243 230.194 267.51 233.658C267.609 234.932 267.682 236.864 266.914 238.248C265.589 240.632 262.401 241.836 262.401 241.836C262.401 241.836 257.733 243.229 254.861 244.43C251.987 245.631 250.339 246.486 250.339 246.486C250.339 246.486 246.66 248.494 244.889 251.836C243.841 253.814 243.534 258.616 244.807 262.007C245.684 264.348 247.596 265.636 248.908 266.396C252.887 268.697 257.858 267.673 257.858 267.673C257.858 267.673 260.917 267.139 263.442 265.68C265.964 264.22 267.955 261.845 267.955 261.845C267.955 261.845 268.292 263.458 269.182 264.836C270.069 266.216 272.989 267.612 274.113 267.745C275.706 267.937 277.469 268.175 280.192 267.319C282.915 266.466 286.159 263.269 286.159 263.269L284.768 262.161C284.768 262.161 283.68 263.075 282.82 262.869C281.959 262.666 281.399 261.409 281.399 261.409C281.399 261.409 281.478 257.975 281.471 255.715C281.452 250.945 281.326 236.498 281.326 236.498C281.326 236.495 280.746 232.065 277.753 229.391C274.756 226.713 269.551 225.825 269.551 225.825C269.551 225.825 266.637 225.233 263.588 225.155ZM264.626 244.221C265.239 244.296 266.073 244.476 266.584 244.856C267.303 245.39 267.593 246.153 267.593 246.153L267.768 255.616C267.768 255.616 266.505 260.249 264.461 261.319C262.417 262.39 258.402 262.616 257.538 258.743C257.054 256.573 256.569 252.834 257.631 249.913C258.465 247.627 260.578 245.671 260.578 245.671C260.578 245.671 263.149 244.038 264.626 244.221Z" fill="white"/>
<path d="M283.291 260.391L284.794 262.048L287.455 264.241C287.455 264.241 288.275 264.94 289.874 265.81C291.47 266.681 293.342 267.148 293.342 267.148C293.342 267.148 301.218 268.621 306.374 266.927C311.526 265.233 313.956 260.374 313.956 260.374C313.956 260.374 315.749 253.754 312.828 249.721C309.364 244.946 300.723 238.149 300.723 238.149C300.723 238.149 298.525 235.843 297.961 234.929C297.466 234.134 297.199 232.802 297.588 231.523C298.073 229.919 299.695 229.022 300.591 228.802C301.689 228.532 304.646 228.341 306.057 229.234C307.468 230.125 307.439 231.268 307.439 231.268C307.439 231.268 305.972 231.625 305.078 232.48C304.34 233.191 304.379 234.589 304.462 235.027C304.57 235.576 305.761 237.096 307.518 237.076C309.275 237.055 310.742 236.78 311.431 236.098C311.889 235.645 314.266 231.366 310.653 228.491C307.04 225.616 302.26 225.013 296.425 225.428C290.586 225.843 287.379 229.733 287.379 229.733C287.379 229.733 284.613 233.559 286.03 238.294C287.448 243.026 294.199 248.854 294.199 248.854C294.199 248.854 301.172 254.815 300.868 258.25C300.565 261.685 297.058 263.214 293.168 263.356C289.278 263.498 284.725 259.315 284.725 259.315L283.291 260.391Z" fill="white"/>
<path d="M311.816 208.46L312.884 209.554C312.884 209.554 314.635 208.425 315.809 208.646C316.985 208.866 317.915 210.154 317.915 210.154L317.757 264.145C317.757 264.145 319.029 267.531 322.53 267.798C323.717 267.888 328.144 267.798 328.2 267.777C328.995 267.496 329.796 267.101 330.34 266.698C331.339 265.958 331.767 265.21 331.767 265.21L331.754 236.919C331.754 236.919 332.859 234.529 334.731 232.988C336.32 231.68 338.483 231.651 338.483 231.651C338.483 231.651 340.243 231.97 341.37 233.403C342.498 234.836 342.844 236.475 343.094 237.633C344.232 242.904 343.978 249.692 343.978 249.692L343.569 257.545C343.569 257.545 343.002 264.74 340.925 268.389C338.848 272.039 335.38 272.332 335.38 272.332L336.099 274C336.099 274 345.33 273.655 350.654 267.815C352.938 265.309 355.14 261.601 356.182 258.401C357.566 254.145 357.685 250.658 357.685 250.658C357.685 250.658 358.308 242.048 356.887 235.86C355.467 229.669 352.226 227.372 352.226 227.372C352.226 227.372 348.887 224.68 343.497 225.335C338.11 225.994 331.744 232.872 331.744 232.872L331.711 209.165C331.711 209.165 331.303 205.083 326.269 204.494C324.587 204.3 321.498 204.358 319.359 204.947C315.077 206.122 311.816 208.46 311.816 208.46Z" fill="white"/>
</svg>
